<svg width="18" height="14" viewBox="0 0 28 16" fill="none" xmlns="http://www.w3.org/2000/svg">
<path d="M25.25 5.5H14.8125C14.2976 4.0381 13.3417 2.77203 12.0767 1.87645C10.8117 0.980879 9.29993 0.499943 7.75 0.5C3.6125 0.5 0.25 3.8625 0.25 8C0.25 12.1375 3.6125 15.5 7.75 15.5C9.29993 15.5001 10.8117 15.0191 12.0767 14.1235C13.3417 13.228 14.2976 11.9619 14.8125 10.5H15.25L17.75 13L20.25 10.5L22.75 13L27.75 7.95L25.25 5.5ZM7.75 11.75C5.6875 11.75 4 10.0625 4 8C4 5.9375 5.6875 4.25 7.75 4.25C9.8125 4.25 11.5 5.9375 11.5 8C11.5 10.0625 9.8125 11.75 7.75 11.75Z" fill="white"/>
<defs>
    <conicGradient id='Gradient1'>
        
    </conicGradient>
</defs>
</svg>
